# xmcd CD database file
#
# Track frame offsets:
#	150
#	16416
#	29218
#	45756
#	60980
#	75741
#	93175
#	109616
#	121231
#	142115
#	154061
#	169158
#
# Disc length: 2541 seconds
#
# Revision: 4
# Processed by: cddbd v1.5.1PL2 Copyright (c) Steve Scherf et al.
# Submitted via: CDex 1.51
#
DISCID=9009eb0c
DTITLE=Les Cowboys Fringants - 12 Grandes Chansons
DYEAR=1997
DGENRE=Québécois
TTITLE0=Les Routes du Bonheur
TTITLE1=Awikachikaën
TTITLE2=Évangéline
TTITLE3=Cass de Pouëlle
TTITLE4=L'Agacepésie
TTITLE5=Dieudonné Rastapopoulos
TTITLE6=Plattsburgh
TTITLE7=Willie Jos Hachey
TTITLE8=Gaétane
TTITLE9=Repentigny-by-the-Sea
TTITLE10=Le Hurlot
TTITLE11=Impala Blues
EXTD=YEAR: 1997
EXTT0=
EXTT1=
EXTT2=
EXTT3=
EXTT4=
EXTT5=
EXTT6=
EXTT7=
EXTT8=
EXTT9=
EXTT10=
EXTT11=
PLAYORDER=
